<?xml version="1.0" encoding="UTF-8"?>
<svg version="1.1" xmlns="http://www.w3.org/2000/svg" width="1200" height="1200">
<path d="M0 0 C0.804375 0.7425 1.60875 1.485 2.4375 2.25 C4.41539558 4.06307094 6.43946817 5.78289014 8.5 7.5 C30.52127739 26.87342841 45.5195307 51.94856652 57.6875 78.3125 C170.2175 78.6425 282.7475 78.9725 398.6875 79.3125 C397.19534452 82.29681096 396.0867191 84.2345327 394.03515625 86.7109375 C393.51171631 87.34781494 392.98827637 87.98469238 392.44897461 88.64086914 C391.88831299 89.31625732 391.32765137 89.99164551 390.75 90.6875 C389.56417575 92.1307481 388.37929528 93.5747721 387.1953125 95.01953125 C386.60266602 95.74221191 386.01001953 96.46489258 385.39941406 97.20947266 C383.41866749 99.64275146 381.46811343 102.09728441 379.54040217 104.572743 C378.649241 105.70747452 377.74887057 106.83509162 376.83566022 107.95215505 C374.42781318 110.9257569 372.33565788 113.8423302 370.50883102 117.2081461 C367.39264004 122.52858523 364.08417633 127.22794378 358.00071049 129.17038989 C350.37391713 130.47868002 342.65868325 130.28998544 334.9463315 130.13802731 C331.4207798 130.08519536 327.89589692 130.11980293 324.37017822 130.14337158 C318.27338825 130.17235572 312.17881782 130.14690421 306.08231354 130.08364677 C297.26841736 129.99227361 288.45596606 129.98428491 279.6416758 129.99613417 C265.33911213 130.01312003 251.0375986 129.96340592 236.73535156 129.87133789 C222.84857543 129.78208814 208.96225835 129.72450554 195.07519531 129.70922852 C194.21809327 129.70827466 193.36099122 129.7073208 192.47791639 129.70633804 C188.17775188 129.70174688 183.87758706 129.6977753 179.57742167 129.6941117 C143.94685897 129.66295512 108.317439 129.52226204 72.6875 129.3125 C73.0175 132.6125 73.3475 135.9125 73.6875 139.3125 C141.3375 139.3125 208.9875 139.3125 278.6875 139.3125 C276.9923696 142.70276079 275.42768555 145.04462365 273.0625 147.9375 C271.98162109 149.2678125 271.98162109 149.2678125 270.87890625 150.625 C269.79416016 151.9553125 269.79416016 151.9553125 268.6875 153.3125 C267.4567432 154.85289752 266.2275726 156.39456374 265 157.9375 C262.52706753 161.03110919 260.03974638 164.11240882 257.5390625 167.18359375 C256.97662842 167.87437012 256.41419434 168.56514648 255.8347168 169.27685547 C254.73035392 170.63211672 253.6251099 171.98666064 252.51879883 173.34033203 C251.99568115 173.98212402 251.47256348 174.62391602 250.93359375 175.28515625 C250.42087953 175.89309304 249.9081653 176.50102983 249.37991428 177.12738895 C247.63872935 179.25895422 247.63872935 179.25895422 246.40613461 181.63862514 C244.73657146 184.42775972 243.24360246 186.28397955 240.6875 188.3125 C235.32710735 189.63504659 230.0394036 189.45242837 224.56274414 189.33422852 C222.91641378 189.33168784 221.27007323 189.33311879 219.62374878 189.33821106 C215.16679455 189.34078837 210.71203018 189.28796428 206.255584 189.22504544 C201.59387845 189.16869615 196.93211992 189.16349011 192.27012634 189.15281677 C183.44775894 189.12486878 174.62639799 189.05104903 165.80447334 188.96067137 C155.75869545 188.85999484 145.7128689 188.81057073 135.66671193 188.76541245 C115.00641336 188.67139646 94.34702014 188.51314393 73.6875 188.3125 C73.3575 191.6125 73.0275 194.9125 72.6875 198.3125 C101.0675 198.6425 129.4475 198.9725 158.6875 199.3125 C157.19534452 202.29681096 156.0867191 204.2345327 154.03515625 206.7109375 C153.51171631 207.34781494 152.98827637 207.98469238 152.44897461 208.64086914 C151.88831299 209.31625732 151.32765137 209.99164551 150.75 210.6875 C149.56417575 212.1307481 148.37929528 213.5747721 147.1953125 215.01953125 C146.60266602 215.74221191 146.01001953 216.46489258 145.39941406 217.20947266 C143.41876418 219.64263268 141.46792242 222.09668728 139.54148865 224.57295227 C138.64877635 225.7086551 137.74497338 226.83580889 136.82588196 227.95027161 C134.39735408 230.92939075 132.37369168 233.78957948 130.6652832 237.23828125 C128.10422294 241.91939789 125.39775864 245.63921325 120.6875 248.3125 C110.98024285 250.68961253 100.57003191 249.79890813 90.65911865 249.34246826 C86.93939403 249.1876458 83.21812669 249.12023188 79.49609375 249.04492188 C72.22235802 248.88512043 64.95624529 248.62997848 57.6875 248.3125 C57.38039093 249.25261932 57.07328186 250.19273865 56.75686646 251.16134644 C55.16847171 255.84194564 52.86394318 260.07335094 50.5625 264.4375 C50.0682251 265.37529297 49.5739502 266.31308594 49.06469727 267.27929688 C43.03750545 278.57356457 35.83532675 288.7468882 27.90478516 298.77050781 C26.7749386 300.20173742 25.65837548 301.64342606 24.54296875 303.0859375 C15.28888265 314.7951893 4.54625631 325.26197421 -7.3125 334.3125 C-7.8595459 334.73595703 -8.4065918 335.15941406 -8.97021484 335.59570312 C-53.9892099 370.31215423 -111.00852629 385.96385434 -167.5 379.1875 C-215.98130157 372.67520673 -258.59707018 351.6638501 -293.68798828 317.87402344 C-295.07224662 316.54343787 -296.4702721 315.22719913 -297.87109375 313.9140625 C-312.14623049 300.22418092 -323.21457198 282.88975885 -332.875 265.75 C-333.28049072 265.03682617 -333.68598145 264.32365234 -334.10375977 263.58886719 C-336.08223349 259.98889334 -337.67519486 256.46387166 -338.94116211 252.55102539 C-339.20102402 251.75346329 -339.46088593 250.95590118 -339.72862244 250.13417053 C-340.01764183 249.23244362 -340.01764183 249.23244362 -340.3125 248.3125 C-341.07068024 248.3502504 -341.82886047 248.38800079 -342.61001587 248.42689514 C-349.81588641 248.76997568 -357.01771734 249.02747955 -364.22966957 249.19330692 C-367.93664856 249.28144997 -371.63679911 249.4004967 -375.33984375 249.5949707 C-401.21798255 250.91873783 -401.21798255 250.91873783 -408.2644043 244.70092773 C-411.39296251 241.24575443 -413.82508895 237.53148941 -416.07287598 233.45878601 C-418.00318047 230.11665529 -420.42853775 227.22213779 -422.875 224.25 C-423.75043969 223.13128152 -424.62320813 222.01046273 -425.4921875 220.88671875 C-427.5858453 218.21249857 -429.72424914 215.57912858 -431.8828125 212.95703125 C-432.48407959 212.22556885 -433.08534668 211.49410645 -433.70483398 210.74047852 C-434.88245803 209.3117305 -436.06413391 207.88631048 -437.25024414 206.46459961 C-437.77996826 205.82143799 -438.30969238 205.17827637 -438.85546875 204.515625 C-439.33008545 203.94489258 -439.80470215 203.37416016 -440.29370117 202.78613281 C-441.3125 201.3125 -441.3125 201.3125 -441.3125 199.3125 C-412.9325 199.3125 -384.5525 199.3125 -355.3125 199.3125 C-355.6425 195.6825 -355.9725 192.0525 -356.3125 188.3125 C-357.16026819 188.32817048 -358.00803638 188.34384096 -358.88149452 188.35998631 C-379.55676407 188.73622976 -400.23143992 189.0171203 -420.90941811 189.19330692 C-430.90961648 189.28078746 -440.90752325 189.3999309 -450.90625 189.5949707 C-459.62643532 189.76498887 -468.34496081 189.87421979 -477.06675756 189.91200441 C-481.68145031 189.93407921 -486.29139724 189.9855189 -490.90456009 190.10991096 C-521.19749549 190.89546967 -521.19749549 190.89546967 -528.5692749 184.66305542 C-531.7366561 181.24353705 -534.05912837 177.59468463 -536.16187668 173.44915581 C-537.98963647 170.055088 -540.42175553 167.20497948 -542.875 164.25 C-543.75092244 163.13165946 -544.6237549 162.01088533 -545.4921875 160.88671875 C-547.5858453 158.21249857 -549.72424914 155.57912858 -551.8828125 152.95703125 C-552.48407959 152.22556885 -553.08534668 151.49410645 -553.70483398 150.74047852 C-554.88245803 149.3117305 -556.06413391 147.88631048 -557.25024414 146.46459961 C-558.04483032 145.49985718 -558.04483032 145.49985718 -558.85546875 144.515625 C-559.33008545 143.94489258 -559.80470215 143.37416016 -560.29370117 142.78613281 C-561.3125 141.3125 -561.3125 141.3125 -561.3125 139.3125 C-493.6625 139.3125 -426.0125 139.3125 -356.3125 139.3125 C-355.9825 135.6825 -355.6525 132.0525 -355.3125 128.3125 C-356.7838698 128.32817048 -358.2552396 128.34384096 -359.77119637 128.35998631 C-394.7357511 128.72854659 -429.69999112 129.00867389 -464.66607923 129.1806106 C-468.9741669 129.20187141 -473.28225047 129.22387501 -477.59033203 129.24633789 C-478.44795674 129.25079717 -479.30558145 129.25525645 -480.18919478 129.25985085 C-494.05754155 129.33372974 -507.92468459 129.4677118 -521.79231836 129.62409753 C-536.03272707 129.783342 -550.2725075 129.87755445 -564.51376998 129.91200441 C-573.29504896 129.93527834 -582.07292562 130.00863691 -590.85315643 130.14707994 C-596.88260485 130.23727928 -602.91030726 130.26403 -608.94038059 130.24202342 C-612.41575071 130.23117954 -615.88520175 130.24720016 -619.3595047 130.33899307 C-641.24709283 130.83218123 -641.24709283 130.83218123 -647.95333481 124.64642143 C-651.08129719 121.17187794 -653.62029823 117.45888873 -656.0028131 113.44480884 C-658.02087563 110.15918953 -660.44140079 107.23228988 -662.875 104.25 C-663.74995923 103.13090571 -664.62266652 102.0100437 -665.4921875 100.88671875 C-667.5858453 98.21249857 -669.72424914 95.57912858 -671.8828125 92.95703125 C-672.48407959 92.22556885 -673.08534668 91.49410645 -673.70483398 90.74047852 C-674.88245803 89.3117305 -676.06413391 87.88631048 -677.25024414 86.46459961 C-678.04483032 85.49985718 -678.04483032 85.49985718 -678.85546875 84.515625 C-679.33008545 83.94489258 -679.80470215 83.37416016 -680.29370117 82.78613281 C-681.3125 81.3125 -681.3125 81.3125 -681.3125 79.3125 C-568.7825 79.3125 -456.2525 79.3125 -340.3125 79.3125 C-339.6525 77.3325 -338.9925 75.3525 -338.3125 73.3125 C-327.52896631 49.41154469 -312.17876224 29.3020901 -294.3125 10.3125 C-293.65765625 9.60351562 -293.0028125 8.89453125 -292.328125 8.1640625 C-286.26302641 1.81385244 -279.29680876 -3.40350526 -272.3125 -8.6875 C-271.50498291 -9.31011719 -271.50498291 -9.31011719 -270.68115234 -9.9453125 C-195.79782367 -67.49432245 -86.0238838 -66.69522552 0 0 Z M-262.3125 47.3125 C-263.21355469 48.21355469 -264.11460937 49.11460937 -265.04296875 50.04296875 C-294.75015999 81.26149563 -310.28010341 124.68428879 -309.24194336 167.50073242 C-307.53182344 212.27445664 -290.07021131 252.70297282 -258.3125 284.3125 C-257.81282715 284.81475098 -257.3131543 285.31700195 -256.79833984 285.83447266 C-226.62458824 315.84484692 -184.18093799 331.74185403 -141.9375 331.6875 C-141.24784149 331.68728851 -140.55818298 331.68707703 -139.84762573 331.68685913 C-126.72512364 331.64706254 -114.110579 330.26458696 -101.3125 327.3125 C-100.5395459 327.13589844 -99.7665918 326.95929688 -98.97021484 326.77734375 C-77.44530763 321.63763564 -56.71877021 310.82492309 -39.3125 297.3125 C-37.99185547 296.29929687 -37.99185547 296.29929687 -36.64453125 295.265625 C-1.44675618 267.43246376 20.37808799 226.70978849 25.6875 182.3125 C30.11029729 138.47455745 17.80339017 94.78390829 -9.3125 60 C-37.91670718 25.68660279 -76.34833043 1.6987327 -121.39599609 -3.22070312 C-174.97838546 -7.90253986 -224.33055342 9.14544494 -262.3125 47.3125 Z " fill="#8B53A1" transform="translate(741.3125,361.6875)"/>
<path d="M0 0 C0.64324219 0.55558594 1.28648437 1.11117188 1.94921875 1.68359375 C1.94921875 4.87387906 1.52438797 5.79614719 -0.01953125 8.4765625 C-0.62861328 9.54487305 -0.62861328 9.54487305 -1.25 10.63476562 C-1.67925781 11.37275391 -2.10851562 12.11074219 -2.55078125 12.87109375 C-2.98003906 13.62068359 -3.40929687 14.37027344 -3.8515625 15.14257812 C-4.91224346 16.99287714 -5.98077048 18.83867438 -7.05078125 20.68359375 C-9.29501489 19.57356517 -11.49423126 18.43518268 -13.6796875 17.2109375 C-23.07350193 12.12001543 -30.22215458 10.4135923 -40.67578125 13.12109375 C-48.49749284 15.82753617 -54.51913931 20.32474665 -58.48828125 27.68359375 C-59.04628137 29.00180504 -59.56882976 30.33571842 -60.05078125 31.68359375 C-60.28539062 32.30878906 -60.52 32.93398438 -60.76171875 33.578125 C-63.27325336 41.58568015 -62.04314026 50.11754582 -58.33984375 57.55078125 C-54.23680157 64.33945104 -49.52315031 68.92833798 -42.05078125 71.68359375 C-41.11105469 72.03744141 -41.11105469 72.03744141 -40.15234375 72.3984375 C-32.62560848 74.74862219 -25.23729107 73.55819768 -18.05078125 70.68359375 C-17.72078125 61.11359375 -17.39078125 51.54359375 -17.05078125 41.68359375 C-13.93640625 41.66296875 -10.82203125 41.64234375 -7.61328125 41.62109375 C-6.63045166 41.61198975 -5.64762207 41.60288574 -4.63500977 41.59350586 C-3.86600342 41.5910083 -3.09699707 41.58851074 -2.3046875 41.5859375 C-1.51392822 41.58070068 -0.72316895 41.57546387 0.09155273 41.57006836 C1.94921875 41.68359375 1.94921875 41.68359375 2.94921875 42.68359375 C3.36327392 48.27241015 3.47731601 53.86204255 3.57397461 59.46435547 C3.61557908 61.35031682 3.6768952 63.23595312 3.75854492 65.12060547 C4.42433417 80.73988385 4.42433417 80.73988385 0.86108398 85.43505859 C-1.73577025 87.29005807 -4.08393155 88.52558797 -7.05078125 89.68359375 C-8.45614136 90.3170874 -8.45614136 90.3170874 -9.88989258 90.96337891 C-21.21687124 95.97895746 -35.75791547 96.77883223 -47.61328125 93.05859375 C-61.42531775 87.58007648 -72.04792917 79.03743453 -78.56640625 65.546875 C-84.19663584 52.39349381 -85.67719042 36.90847716 -80.328125 23.3359375 C-77.5026134 17.4688966 -74.24835415 11.68882973 -70.05078125 6.68359375 C-69.39078125 6.68359375 -68.73078125 6.68359375 -68.05078125 6.68359375 C-67.72078125 5.69359375 -67.39078125 4.70359375 -67.05078125 3.68359375 C-47.71954491 -13.41867404 -21.0844357 -13.5048668 0 0 Z " fill="#8B53A1" transform="translate(639.05078125,487.31640625)"/>
<path d="M0 0 C4.29 0 8.58 0 13 0 C13.33 6.93 13.66 13.86 14 21 C15.98 20.01 17.96 19.02 20 18 C28.26125548 16.64569582 35.18271538 18.18779909 42 23 C47.7746345 28.0299142 50.53986948 33.72078618 51.3515625 41.26953125 C51.72913835 50.44064982 50.34679107 57.20692648 44.09765625 64.09765625 C37.50307253 70.26188326 31.23206536 71.53751488 22.32421875 71.375 C14.72110954 70.51730495 9.0636048 66.86813 4.25390625 61.0390625 C-0.12616143 53.91633561 -0.40890572 48.18756007 -0.29296875 39.94140625 C-0.28872391 38.79711655 -0.28447906 37.65282684 -0.28010559 36.47386169 C-0.26337804 32.83649689 -0.22573565 29.19969598 -0.1875 25.5625 C-0.17244556 23.08920074 -0.15875848 20.61589275 -0.14648438 18.14257812 C-0.11349373 12.09483642 -0.06175133 6.04751366 0 0 Z M15.6875 36.1875 C13.54626179 39.75623036 12.68960167 42.88154406 13 47 C14.28095497 51.45549554 16.03354327 54.27515746 19.75 57.0625 C23.86642346 58.24992985 26.96049281 58.57404256 31 57 C34.78725282 54.08798703 36.68186231 51.04798297 38.0625 46.5 C37.96579131 41.08431357 36.4662195 37.50584705 32.6875 33.625 C25.99989221 29.58133017 21.22369296 30.95056071 15.6875 36.1875 Z " fill="#8B53A1" transform="translate(745,808)"/>
<path d="M0 0 C4.29 0 8.58 0 13 0 C13.33 6.93 13.66 13.86 14 21 C15.98 20.01 17.96 19.02 20 18 C28.26125548 16.64569582 35.18271538 18.18779909 42 23 C47.7746345 28.0299142 50.53986948 33.72078618 51.3515625 41.26953125 C51.72913835 50.44064982 50.34679107 57.20692648 44.09765625 64.09765625 C37.50307253 70.26188326 31.23206536 71.53751488 22.32421875 71.375 C14.72110954 70.51730495 9.0636048 66.86813 4.25390625 61.0390625 C-0.12616143 53.91633561 -0.40890572 48.18756007 -0.29296875 39.94140625 C-0.28872391 38.79711655 -0.28447906 37.65282684 -0.28010559 36.47386169 C-0.26337804 32.83649689 -0.22573565 29.19969598 -0.1875 25.5625 C-0.17244556 23.08920074 -0.15875848 20.61589275 -0.14648438 18.14257812 C-0.11349373 12.09483642 -0.06175133 6.04751366 0 0 Z M15.6875 36.1875 C13.54626179 39.75623036 12.68960167 42.88154406 13 47 C14.28095497 51.45549554 16.03354327 54.27515746 19.75 57.0625 C23.86642346 58.24992985 26.96049281 58.57404256 31 57 C34.78725282 54.08798703 36.68186231 51.04798297 38.0625 46.5 C37.96579131 41.08431357 36.4662195 37.50584705 32.6875 33.625 C25.99989221 29.58133017 21.22369296 30.95056071 15.6875 36.1875 Z " fill="#8B53A1" transform="translate(626,808)"/>
<path d="M0 0 C1.35808946 0.96611118 2.70001106 1.95702036 4 3 C3.36610765 6.49844386 1.94822306 8.84086876 -0.0625 11.75 C-0.61035156 12.54921875 -1.15820312 13.3484375 -1.72265625 14.171875 C-2.14417969 14.77515625 -2.56570313 15.3784375 -3 16 C-3.86625 15.38125 -4.7325 14.7625 -5.625 14.125 C-11.0802195 10.69023217 -15.54705803 9.4437119 -22 10 C-24.76266213 10.80340081 -27.36679481 11.84689707 -30 13 C-30.78375 13.309375 -31.5675 13.61875 -32.375 13.9375 C-36.42240602 16.58388086 -37.99420549 23.48477858 -39 28 C-39.17312213 33.53990816 -38.09774474 38.35338289 -35 43 C-30.14767671 48.12257927 -25.68018923 50.80284701 -18.5 51.1875 C-14.56387939 51.04180431 -14.56387939 51.04180431 -9 50 C-9 43.4 -9 36.8 -9 30 C-4.71 30 -0.42 30 4 30 C4.21581162 34.56501517 4.37442951 39.11987341 4.5 43.6875 C4.60054688 45.62786133 4.60054688 45.62786133 4.703125 47.60742188 C4.89509988 56.89420653 4.89509988 56.89420653 2.4296875 59.93994141 C0.32241263 61.32462033 -1.61384394 62.19578782 -4 63 C-5.16917969 63.42539062 -6.33835937 63.85078125 -7.54296875 64.2890625 C-18.79790914 66.60363781 -28.65766822 65.50823955 -38.3984375 59.52734375 C-45.9997427 54.1862273 -50.55054659 46.92221719 -53 38 C-54.20767451 25.3615458 -52.14351561 15.86658349 -44.05859375 6.04296875 C-32.29920735 -5.62716235 -14.54947389 -7.48759499 0 0 Z " fill="#8B53A1" transform="translate(405,814)"/>
<path d="M0 0 C4.29 0 8.58 0 13 0 C13.04898438 2.10761719 13.09796875 4.21523438 13.1484375 6.38671875 C13.20252219 8.43878991 13.25980006 10.49074897 13.31738281 12.54272461 C13.35555149 13.9635373 13.39042513 15.38444263 13.421875 16.80541992 C13.46779065 18.85368855 13.52573805 20.90132608 13.5859375 22.94921875 C13.6173584 24.17987061 13.6487793 25.41052246 13.68115234 26.6784668 C13.99115552 29.90786434 14.44731196 32.1602746 16 35 C20.02440515 36.85741776 22.06332873 37.30044173 26.3125 35.9375 C29.43798139 33.68424597 29.89194722 32.62403263 31 29 C31.36356069 25.7132943 31.36356069 25.7132943 31.4140625 22.16796875 C31.45273437 20.87568359 31.49140625 19.58339844 31.53125 18.25195312 C31.56270014 16.89714005 31.59394761 15.54232225 31.625 14.1875 C31.6632175 12.81312728 31.7022714 11.43877756 31.7421875 10.06445312 C31.83635162 6.70985624 31.9192603 3.35494683 32 0 C36.29 0 40.58 0 45 0 C45.12422695 6.93759744 45.214637 13.87453772 45.2746582 20.81298828 C45.29969708 23.16987395 45.33373841 25.52668279 45.37719727 27.88330078 C45.4383159 31.28437328 45.46631727 34.6844132 45.48828125 38.0859375 C45.51408768 39.12801361 45.5398941 40.17008972 45.56648254 41.2437439 C45.5694957 49.22458018 43.73629689 55.89627313 38.25923157 61.91195679 C30.38643596 69.26115389 23.42953628 69.32256298 13 69 C13 64.71 13 60.42 13 56 C15.99479167 55.609375 18.98958333 55.21875 21.984375 54.828125 C25.39974598 53.8902252 26.75507663 52.68083082 29 50 C27.515 50.495 27.515 50.495 26 51 C19.16555032 51.74049988 13.62241415 51.12632112 8 47 C3.09306455 42.39838498 0.18521726 38.08396702 -0.22705078 31.21948242 C-0.22673701 29.76477276 -0.21560903 28.31003685 -0.1953125 26.85546875 C-0.1924826 26.08568192 -0.18965271 25.31589508 -0.18673706 24.52278137 C-0.17559157 22.07752575 -0.15049781 19.63264388 -0.125 17.1875 C-0.1149629 15.52409385 -0.10583833 13.86068193 -0.09765625 12.19726562 C-0.07567073 8.13136763 -0.04118014 4.06574706 0 0 Z " fill="#8B53A1" transform="translate(569,828)"/>
<path d="M0 0 C1.19155088 0.70149759 2.37949427 1.40918591 3.5625 2.125 C5.21947379 2.81540574 6.88173769 3.49471413 8.5625 4.125 C9.18125 3.135 9.18125 3.135 9.8125 2.125 C10.67875 1.135 10.67875 1.135 11.5625 0.125 C12.8825 0.125 14.2025 0.125 15.5625 0.125 C15.5625 16.625 15.5625 33.125 15.5625 50.125 C10.54112202 49.1207244 9.70006581 48.72739038 6.5625 45.125 C6.01980469 45.47433594 5.47710938 45.82367187 4.91796875 46.18359375 C4.20253906 46.63863281 3.48710938 47.09367188 2.75 47.5625 C1.68845703 48.24119141 1.68845703 48.24119141 0.60546875 48.93359375 C-4.93277788 52.16335517 -11.23095362 51.65384182 -17.4375 51.125 C-24.29854089 49.11795465 -29.09326765 44.59735846 -32.6875 38.5 C-36.51030104 31.12745514 -36.88433945 22.1078372 -34.56640625 14.125 C-31.31532654 7.13251381 -26.79429349 3.09958441 -20.25 -0.75 C-13.49192648 -2.74418563 -6.42961175 -3.25133776 0 0 Z M-20.3125 15.75 C-22.3244484 19.99744661 -23.03714269 24.54306744 -21.96484375 29.16015625 C-20.53249765 32.84668638 -19.00371324 35.39008545 -15.4375 37.125 C-10.54865443 38.30778522 -8.63684206 38.73598558 -4.125 36.4375 C-0.4590274 33.28305846 1.18987278 31.5356602 2.4375 26.8125 C2.58825378 22.36526349 1.74728216 19.98478181 -0.4375 16.125 C-6.63168054 9.76340917 -13.59033798 9.92412625 -20.3125 15.75 Z " fill="#8B53A1" transform="translate(718.4375,827.875)"/>
<path d="M0 0 C2.77241127 1.9066769 4.9135881 3.8926757 7.1015625 6.4453125 C5.40115188 10.589427 2.4601583 13.68920863 -0.4609375 17.0078125 C-1.54138013 18.2504198 -2.62079507 19.49392136 -3.69921875 20.73828125 C-4.23627441 21.35751465 -4.77333008 21.97674805 -5.32666016 22.61474609 C-8.93719118 26.81974168 -12.41495243 31.13493956 -15.8984375 35.4453125 C-10.08747233 34.84984257 -7.72532824 33.96800156 -3.8984375 29.4453125 C-0.68319445 30.85375968 1.42340118 32.54876036 3.8515625 35.0703125 C4.46515625 35.70195313 5.07875 36.33359375 5.7109375 36.984375 C6.39929688 37.70753906 6.39929688 37.70753906 7.1015625 38.4453125 C3.03038694 44.12899289 -1.02933518 47.70240594 -7.8984375 49.4453125 C-16.59457961 50.60043915 -23.70297901 49.6203071 -30.8984375 44.4453125 C-36.32906831 39.60146595 -39.50624727 34.26698843 -40.25 27.01953125 C-40.60480521 17.72923685 -39.57312098 10.66408028 -33.25390625 3.609375 C-23.74272305 -5.1933002 -11.2973931 -6.43988206 0 0 Z M-22.8984375 12.4453125 C-25.59521884 15.99659723 -26.78353988 19.4112339 -27.2734375 23.8203125 C-27.14427083 26.59947917 -27.14427083 26.59947917 -24.8984375 28.4453125 C-18.4634375 20.0303125 -18.4634375 20.0303125 -11.8984375 11.4453125 C-12.2284375 10.7853125 -12.5584375 10.1253125 -12.8984375 9.4453125 C-16.746365 9.4453125 -19.74067132 10.28511336 -22.8984375 12.4453125 Z " fill="#8B53A1" transform="translate(842.8984375,829.5546875)"/>
<path d="M0 0 C0 4.29 0 8.58 0 13 C-4.44335938 13.24414062 -4.44335938 13.24414062 -8.88671875 13.48828125 C-12.31802433 14.05227251 -14.25824947 14.87610874 -17 17 C-18.21143606 18.99693687 -18.21143606 18.99693687 -18.8125 21.1875 C-19.204375 22.445625 -19.59625 23.70375 -20 25 C-14.72 25 -9.44 25 -4 25 C-4 29.29 -4 33.58 -4 38 C-9.28 38 -14.56 38 -20 38 C-20 50.54 -20 63.08 -20 76 C-24.29 76 -28.58 76 -33 76 C-33 63.46 -33 50.92 -33 38 C-34.98 38 -36.96 38 -39 38 C-39 33.71 -39 29.42 -39 25 C-37.02 25 -35.04 25 -33 25 C-33.12375 23.2675 -33.12375 23.2675 -33.25 21.5 C-33.23902568 15.29950671 -30.59745834 10.95244908 -26.75 6.25 C-18.18152256 -0.76057245 -10.67467938 -0.46636949 0 0 Z " fill="#8B53A1" transform="translate(522,803)"/>
<path d="M0 0 C0 4.29 0 8.58 0 13 C-4.44335938 13.24414062 -4.44335938 13.24414062 -8.88671875 13.48828125 C-12.31802433 14.05227251 -14.25824947 14.87610874 -17 17 C-18.21143606 18.99693687 -18.21143606 18.99693687 -18.8125 21.1875 C-19.204375 22.445625 -19.59625 23.70375 -20 25 C-14.72 25 -9.44 25 -4 25 C-4 29.29 -4 33.58 -4 38 C-9.28 38 -14.56 38 -20 38 C-20 50.54 -20 63.08 -20 76 C-24.29 76 -28.58 76 -33 76 C-33 63.46 -33 50.92 -33 38 C-34.98 38 -36.96 38 -39 38 C-39 33.71 -39 29.42 -39 25 C-37.02 25 -35.04 25 -33 25 C-33.12375 23.2675 -33.12375 23.2675 -33.25 21.5 C-33.23902568 15.29950671 -30.59745834 10.95244908 -26.75 6.25 C-18.18152256 -0.76057245 -10.67467938 -0.46636949 0 0 Z " fill="#8B53A1" transform="translate(482,803)"/>
<path d="M0 0 C4.29 0 8.58 0 13 0 C13 6.6 13 13.2 13 20 C19.27 20 25.54 20 32 20 C32 24.29 32 28.58 32 33 C25.73 33 19.46 33 13 33 C13.103125 35.536875 13.20625 38.07375 13.3125 40.6875 C13.33739502 41.47729248 13.36229004 42.26708496 13.38793945 43.08081055 C13.61599228 47.46930153 14.20950248 50.42736778 17 54 C20.40431947 56.26954631 22.16524202 56.36549949 26.1875 56.625 C29.0646875 56.810625 29.0646875 56.810625 32 57 C32 61.29 32 65.58 32 70 C13.77777778 70.7961165 13.77777778 70.7961165 8 66 C3.66495749 61.8797569 0.33240699 57.65326001 -0.22705078 51.50463867 C-0.21134033 50.22423706 -0.21134033 50.22423706 -0.1953125 48.91796875 C-0.18886719 47.98662109 -0.18242188 47.05527344 -0.17578125 46.09570312 C-0.15902344 45.13599609 -0.14226563 44.17628906 -0.125 43.1875 C-0.11597656 42.20845703 -0.10695313 41.22941406 -0.09765625 40.22070312 C-0.07417182 37.81354939 -0.0413284 35.40690257 0 33 C-1.98 33 -3.96 33 -6 33 C-6 28.71 -6 24.42 -6 20 C-4.02 20 -2.04 20 0 20 C0 13.4 0 6.8 0 0 Z " fill="#8B53A1" transform="translate(529,808)"/>
<path d="M0 0 C4.29 0 8.58 0 13 0 C13 16.5 13 33 13 50 C8.71 50 4.42 50 0 50 C0 33.5 0 17 0 0 Z " fill="#8C54A1" transform="translate(421,828)"/>
<path d="M0 0 C4.45850936 0.79616239 5.90783917 1.93313458 8.5 5.625 C9.125 9.125 9.125 9.125 8.5 12.625 C5.90783917 16.31686542 4.45850936 17.45383761 0 18.25 C-4.45850936 17.45383761 -5.90783917 16.31686542 -8.5 12.625 C-9.125 9.125 -9.125 9.125 -8.5 5.625 C-5.90783917 1.93313458 -4.45850936 0.79616239 0 0 Z " fill="#8B53A1" transform="translate(427.5,805.375)"/>
</svg>
